<svg width="235" height="230" viewBox="0 0 235 230" fill="none" xmlns="http://www.w3.org/2000/svg">
<path d="M234.5 114C201.5 154.2 203 140.5 203 194C163 194 163 194 119.604 230C69 194 68 194 30 194C30 140.5 30 151.5 0.5 114C30 73 30 64.5 30 32C72 32 94 32 119.604 0C142.5 32 163 32 203 32C203 64.5 201.5 73 234.5 114Z" fill="#F9FD3A" fill-opacity="0.6"/>
<path d="M192 114C192 154.198 158.541 187 117 187C75.4586 187 42 154.198 42 114C42 73.8018 75.4586 41 117 41C158.541 41 192 73.8018 192 114Z" fill="#FAFF05" stroke="white" stroke-width="10"/>
</svg>
